<svg id="visual" viewBox="0 0 960 540" width="960" height="540" xmlns="http://www.w3.org/2000/svg" xmlns:xlink="http://www.w3.org/1999/xlink" version="1.1"><rect x="0" y="0" width="960" height="540" fill="#C4BBAF"></rect><path d="M0 322L137 334L274 379L411 407L549 370L686 307L823 314L960 324L960 541L823 541L686 541L549 541L411 541L274 541L137 541L0 541Z" fill="#c00000"></path><path d="M0 337L137 339L274 414L411 390L549 407L686 389L823 361L960 384L960 541L823 541L686 541L549 541L411 541L274 541L137 541L0 541Z" fill="#c51800"></path><path d="M0 422L137 418L274 361L411 391L549 412L686 413L823 361L960 348L960 541L823 541L686 541L549 541L411 541L274 541L137 541L0 541Z" fill="#ca2600"></path><path d="M0 365L137 372L274 367L411 363L549 442L686 430L823 425L960 366L960 541L823 541L686 541L549 541L411 541L274 541L137 541L0 541Z" fill="#d03100"></path><path d="M0 440L137 378L274 441L411 452L549 382L686 390L823 416L960 430L960 541L823 541L686 541L549 541L411 541L274 541L137 541L0 541Z" fill="#d53b00"></path><path d="M0 404L137 445L274 464L411 433L549 439L686 455L823 402L960 448L960 541L823 541L686 541L549 541L411 541L274 541L137 541L0 541Z" fill="#da4400"></path><path d="M0 447L137 418L274 449L411 439L549 452L686 476L823 422L960 429L960 541L823 541L686 541L549 541L411 541L274 541L137 541L0 541Z" fill="#de4c00"></path><path d="M0 436L137 478L274 473L411 480L549 440L686 479L823 484L960 435L960 541L823 541L686 541L549 541L411 541L274 541L137 541L0 541Z" fill="#e35401"></path><path d="M0 454L137 484L274 489L411 482L549 463L686 483L823 458L960 463L960 541L823 541L686 541L549 541L411 541L274 541L137 541L0 541Z" fill="#e85c03"></path><path d="M0 479L137 478L274 496L411 482L549 496L686 493L823 476L960 491L960 541L823 541L686 541L549 541L411 541L274 541L137 541L0 541Z" fill="#ec6404"></path><path d="M0 495L137 504L274 519L411 497L549 490L686 492L823 491L960 495L960 541L823 541L686 541L549 541L411 541L274 541L137 541L0 541Z" fill="#f16b07"></path><path d="M0 515L137 517L274 525L411 523L549 529L686 515L823 525L960 516L960 541L823 541L686 541L549 541L411 541L274 541L137 541L0 541Z" fill="#f5730a"></path></svg>