<?xml version="1.0" standalone="no"?>
<!DOCTYPE svg PUBLIC "-//W3C//DTD SVG 20010904//EN"
 "http://www.w3.org/TR/2001/REC-SVG-20010904/DTD/svg10.dtd">
<svg version="1.0" xmlns="http://www.w3.org/2000/svg"
 width="727.000000pt" height="727.000000pt" viewBox="0 0 727.000000 727.000000"
 preserveAspectRatio="xMidYMid meet">
<metadata>
Created by potrace 1.14, written by Peter Selinger 2001-2017
</metadata>
<g transform="translate(0.000000,727.000000) scale(0.100000,-0.100000)"
fill="#000000" stroke="none">
<path d="M1895 6824 c-33 -7 -74 -16 -92 -18 -64 -11 -230 -69 -328 -115 -85
-40 -269 -150 -285 -170 -3 -3 -23 -19 -45 -36 -54 -40 -202 -188 -251 -250
-21 -27 -42 -52 -45 -55 -15 -12 -109 -161 -136 -215 -38 -77 -102 -273 -105
-322 0 -5 -5 -19 -10 -33 -19 -51 -28 -272 -15 -375 9 -70 24 -141 43 -205 8
-30 24 -91 34 -135 25 -108 44 -170 69 -232 24 -60 100 -216 110 -223 3 -3 29
-39 56 -80 43 -65 193 -226 290 -312 37 -33 55 -54 55 -66 0 -4 -28 -28 -62
-52 -121 -84 -315 -264 -388 -358 -14 -18 -33 -43 -44 -55 -37 -44 -146 -205
-146 -216 0 -6 -3 -11 -8 -11 -4 0 -18 -21 -32 -47 -13 -27 -27 -50 -30 -53
-24 -22 -193 -400 -205 -460 -2 -8 -4 -16 -5 -17 -2 -2 -3 -6 -5 -10 -1 -5 -4
-15 -8 -23 -10 -26 -68 -241 -72 -270 -1 -8 -5 -28 -8 -45 -3 -16 -9 -50 -12
-75 -4 -25 -10 -54 -12 -65 -3 -11 -7 -105 -8 -210 -3 -168 2 -247 20 -335 2
-13 7 -41 10 -62 10 -66 64 -219 112 -316 106 -216 269 -389 508 -540 74 -46
331 -162 360 -162 8 0 15 -4 15 -8 0 -5 6 -9 13 -10 6 0 59 -14 117 -31 57
-17 118 -34 135 -37 16 -3 35 -7 40 -8 74 -17 177 -36 235 -42 19 -2 64 -7
100 -11 90 -11 466 -10 570 1 47 5 95 9 108 10 12 1 22 3 22 6 0 3 10 6 23 6
53 3 97 9 97 15 0 3 10 5 23 6 12 1 33 4 47 8 14 3 35 8 46 10 60 13 209 60
289 92 279 110 509 270 661 459 21 27 42 51 47 52 4 2 7 8 7 14 0 5 14 29 30
53 17 24 30 48 30 53 0 6 3 12 8 14 10 4 81 163 88 196 1 8 6 21 10 30 4 9 8
22 9 28 2 6 10 36 18 65 33 114 49 254 50 419 0 97 -11 289 -18 300 -2 3 -6
29 -10 59 -4 30 -8 61 -11 70 -2 9 -7 32 -12 51 -5 20 -8 43 -6 53 1 9 -1 17
-5 17 -4 0 -8 6 -8 13 -1 10 -4 29 -15 85 -3 16 15 42 28 42 8 0 17 7 20 15 4
8 11 12 17 8 6 -4 7 -1 2 7 -6 10 -11 9 -22 -5 -19 -26 -16 -9 3 20 9 14 12
25 8 25 -14 0 20 20 34 20 7 0 10 -5 7 -10 -4 -6 -10 -8 -14 -6 -4 3 -8 -5 -8
-16 -2 -20 -1 -20 15 3 21 31 24 49 6 42 -10 -4 -12 0 -8 13 9 24 24 44 34 44
4 0 12 -10 19 -22 10 -20 11 -21 6 -2 -3 13 3 28 20 44 19 17 22 27 14 36 -8
10 -6 21 9 41 11 15 21 33 22 38 1 6 4 12 7 15 4 3 3 -1 -1 -7 -4 -7 -2 -13 3
-13 6 0 11 5 11 11 0 5 6 7 13 3 9 -6 9 -4 1 7 -13 17 5 58 24 51 7 -2 10 -8
7 -12 -3 -5 -2 -11 3 -14 4 -2 8 4 9 14 1 10 -5 21 -14 24 -14 6 -14 8 1 25
27 30 36 76 20 100 -13 17 -12 21 3 31 16 10 15 10 -4 5 -17 -5 -23 -2 -23 9
0 9 -8 16 -19 16 -10 0 -22 7 -25 16 -3 8 -10 13 -15 10 -5 -4 -8 2 -6 11 2
10 4 20 4 23 1 4 16 12 35 18 60 22 59 91 -2 129 -15 10 -29 20 -32 23 -24 28
-83 62 -100 57 -29 -7 -71 39 -66 73 2 14 -3 40 -10 58 -7 17 -10 32 -6 32 3
0 1 5 -6 12 -7 7 -12 21 -12 33 0 12 -5 26 -12 33 -16 16 17 81 41 80 40 -1
148 15 171 26 33 16 86 0 122 -36 l27 -27 72 24 c39 14 75 22 80 20 4 -3 12 3
18 12 6 10 11 14 11 10 0 -4 10 -2 23 4 19 11 20 10 10 -3 -7 -8 -10 -17 -8
-20 10 -10 14 -49 4 -43 -5 4 -9 1 -9 -4 0 -6 5 -11 10 -11 6 0 10 -5 10 -11
0 -5 -4 -7 -10 -4 -6 3 -7 -1 -4 -9 3 -9 2 -16 -3 -16 -5 0 -10 -7 -10 -16 0
-12 4 -11 17 6 11 14 20 19 24 12 3 -6 2 -13 -3 -17 -6 -3 -7 -13 -4 -22 5
-12 3 -14 -7 -8 -8 5 -11 4 -6 -3 7 -12 36 -5 36 8 0 5 -6 11 -12 13 -8 3 -6
6 5 6 9 1 17 -3 17 -7 0 -4 8 -8 18 -8 9 -1 26 -5 36 -9 15 -7 18 -5 12 6 -4
8 0 5 8 -5 9 -11 16 -24 16 -29 0 -5 6 -7 14 -4 14 6 33 -9 36 -28 3 -16 9
-18 6 -2 -3 21 -27 48 -37 41 -5 -3 -6 2 -3 10 3 9 10 16 16 16 5 0 6 -4 3
-10 -7 -11 8 -14 19 -3 10 10 37 13 31 3 -3 -5 13 -7 35 -5 36 3 39 1 30 -15
-7 -13 -6 -21 2 -26 7 -4 8 -3 4 5 -4 6 0 14 8 17 9 3 13 10 10 15 -3 5 5 5
19 0 16 -6 28 -6 35 1 6 6 12 6 16 0 4 -7 18 -7 39 -2 29 9 30 8 13 -5 -11 -8
-23 -15 -28 -15 -4 0 -8 -8 -7 -17 0 -11 3 -13 6 -6 3 9 11 9 31 -3 l27 -16
-25 21 c-20 16 -21 21 -8 21 9 0 20 -4 23 -10 8 -13 25 -13 25 1 0 5 -4 8 -9
4 -16 -9 -22 12 -7 24 8 7 17 8 20 3 3 -5 24 -8 46 -7 22 1 43 -1 45 -5 3 -4
18 -6 35 -5 17 1 32 -1 35 -4 2 -4 20 -7 39 -6 31 2 52 -13 48 -35 0 -3 8 -6
18 -6 10 0 16 6 13 13 -3 7 -10 11 -15 10 -6 -1 -13 5 -15 13 -4 12 -3 12 5 1
7 -9 12 -10 16 -2 5 8 14 7 29 -4 23 -16 41 -20 33 -7 -2 4 4 8 14 8 10 0 17
-4 14 -7 -2 -4 15 -6 38 -4 24 1 37 1 30 -2 -9 -3 -4 -10 13 -19 31 -16 45
-18 45 -5 0 5 -7 8 -16 7 -9 0 -19 6 -21 14 -4 13 -3 13 5 1 8 -12 14 -12 25
-3 7 7 17 9 20 5 4 -3 19 -7 34 -9 16 -1 31 -2 36 -3 4 -1 7 -6 7 -12 0 -8 -4
-8 -14 0 -10 8 -16 9 -21 1 -3 -6 -10 -8 -15 -5 -4 3 -10 -2 -14 -10 -7 -18
15 -15 30 4 9 11 14 10 29 -10 11 -15 15 -17 12 -6 -4 9 -2 17 4 17 6 0 8 4 5
8 -2 4 6 8 19 8 14 0 22 -2 20 -5 -3 -2 4 -11 16 -19 16 -11 23 -12 32 -3 9 9
8 11 -4 6 -10 -4 -19 0 -23 11 -6 15 -4 15 10 3 10 -8 18 -14 18 -13 1 0 12 6
26 14 l25 12 -22 -21 c-13 -12 -23 -29 -22 -39 0 -13 2 -12 9 4 12 30 67 53
67 29 0 -7 -8 -12 -18 -10 -10 2 -24 -4 -31 -13 -12 -16 -11 -16 6 -2 22 17
25 17 37 -2 7 -10 9 -10 9 0 0 6 8 12 18 12 10 0 22 3 26 7 3 4 16 8 27 10 15
2 20 -1 16 -11 -6 -16 16 -40 26 -29 4 3 13 1 21 -6 11 -9 15 -8 21 6 6 16 9
14 31 -12 14 -16 22 -22 19 -13 -5 13 -2 15 14 11 12 -3 21 -1 21 6 0 5 -6 8
-14 5 -8 -3 -17 0 -21 5 -3 6 -11 8 -17 5 -6 -4 -8 -2 -4 4 7 12 -12 11 -33
-2 -13 -9 -31 8 -31 29 0 6 4 5 8 -2 5 -7 23 -11 45 -9 20 2 34 0 31 -5 -3 -5
0 -9 5 -9 6 0 11 6 11 13 0 6 5 4 11 -6 9 -15 13 -16 27 -5 12 10 14 10 8 1
-4 -8 -1 -13 9 -13 10 0 13 5 9 13 -4 6 2 4 13 -5 25 -23 40 -23 22 -1 -12 15
-12 16 1 8 8 -5 20 -10 25 -11 6 -1 19 -6 29 -10 12 -5 17 -4 13 3 -6 10 21
11 38 1 6 -3 23 -5 38 -3 23 3 27 0 22 -15 -3 -10 -1 -21 4 -24 6 -4 8 -14 5
-24 -3 -9 1 -6 9 7 9 15 16 20 20 12 4 -8 5 -7 3 1 -2 7 -11 12 -21 10 -11 -2
-15 1 -12 10 5 14 10 14 41 2 12 -5 17 -4 13 3 -4 6 5 9 20 8 15 0 28 -6 31
-13 2 -7 10 -12 18 -12 9 0 12 -5 9 -10 -5 -8 -11 -8 -19 -1 -7 6 -16 8 -20 4
-4 -4 -4 1 -1 12 6 16 5 17 -4 5 -9 -12 -11 -13 -11 -1 0 8 -2 12 -5 9 -9 -9
7 -39 19 -35 6 2 23 -4 37 -14 20 -14 26 -15 26 -4 0 8 -5 11 -10 8 -6 -4 -8
0 -4 10 4 10 0 20 -11 26 -15 9 -14 10 5 8 19 -1 37 -28 34 -50 -1 -5 3 -6 9
-2 8 5 7 11 -1 21 -14 18 0 18 23 0 10 -7 14 -17 10 -21 -4 -5 -1 -5 6 -1 7 4
12 2 12 -5 0 -7 3 -10 6 -6 3 3 2 12 -2 19 -5 7 -9 16 -9 20 0 3 -4 10 -9 15
-5 5 -6 3 -2 -4 4 -7 2 -13 -3 -13 -6 0 -11 7 -11 15 0 16 16 20 24 6 3 -5 21
-8 40 -7 32 1 42 -12 21 -31 -4 -4 -5 -2 0 6 5 9 4 12 -3 7 -21 -13 -13 -25
16 -23 17 1 26 -3 25 -10 -5 -22 13 -14 25 11 10 22 9 24 -14 21 -13 -1 -24 2
-24 8 0 5 9 7 20 4 11 -3 23 -1 26 5 3 5 13 3 24 -7 12 -11 20 -13 25 -6 4 8
12 8 27 0 15 -8 22 -8 28 1 6 9 9 9 15 0 6 -9 10 -9 17 1 8 11 9 11 5 -1 -2
-8 -11 -14 -21 -12 -9 2 -16 -3 -16 -10 0 -9 -3 -9 -12 0 -16 16 -31 15 -22 0
6 -10 5 -10 -7 -1 -12 10 -15 8 -16 -7 -1 -11 2 -22 8 -25 5 -3 6 0 4 7 -4 9
2 14 15 15 11 1 18 -2 15 -8 -4 -5 -2 -9 3 -9 6 0 13 7 16 16 3 8 11 12 16 9
13 -8 42 14 35 26 -10 15 31 29 45 16 10 -10 12 -8 7 6 -4 10 -3 16 2 12 5 -3
11 1 14 7 3 10 8 10 18 -1 12 -12 12 -13 0 -6 -10 6 -12 4 -6 -5 5 -8 4 -11
-2 -7 -19 12 -23 -21 -5 -35 15 -12 16 -11 3 5 -13 17 -12 18 15 12 18 -3 22
-2 11 3 -16 7 -16 8 3 24 19 17 18 54 -2 42 -6 -4 -6 -9 2 -14 7 -4 8 -10 3
-13 -5 -3 -14 3 -21 14 -10 15 -10 19 0 17 7 -2 12 5 12 14 -1 10 1 17 5 16
22 -2 51 3 51 11 0 4 -10 7 -23 6 -15 -2 -24 2 -24 11 0 10 4 11 14 3 9 -9 14
-7 19 5 3 9 9 14 14 11 4 -2 6 10 5 28 -4 51 -5 53 -14 37 -6 -8 -7 -18 -5
-22 3 -4 0 -8 -5 -8 -14 0 -14 6 -1 30 7 13 7 21 0 25 -13 8 -13 25 1 25 5 0
7 -4 4 -10 -4 -6 1 -7 12 -4 15 5 16 4 3 -5 -18 -13 -1 -15 19 -2 11 7 9 10
-9 16 -16 5 -19 9 -10 15 7 4 9 13 6 19 -11 17 -29 13 -22 -4 3 -8 1 -15 -4
-15 -11 0 -13 11 -4 34 5 12 11 13 27 5 20 -9 21 -9 4 4 -14 11 -15 16 -5 20
7 3 3 4 -9 4 -12 -1 -20 -4 -17 -8 2 -4 -4 -13 -13 -20 -10 -8 -14 -9 -10 -2
4 7 0 16 -9 21 -11 6 -13 11 -5 16 6 4 11 3 11 -3 0 -12 66 25 77 43 4 6 -1 5
-10 -3 -12 -10 -21 -10 -30 -3 -7 6 -18 7 -26 3 -9 -6 -10 -11 -2 -15 6 -4 11
-2 11 4 0 6 5 8 11 4 8 -4 7 -9 -2 -15 -8 -4 -18 -4 -23 1 -4 4 -16 6 -25 3
-12 -4 -13 -3 -2 5 14 10 -2 28 -18 18 -4 -3 -7 6 -5 20 2 20 -1 24 -16 19
-11 -3 -20 0 -24 10 -4 11 -2 14 6 9 7 -5 8 -3 3 5 -5 9 -10 10 -18 2 -17 -17
-29 -13 -23 7 4 11 -2 22 -14 30 -24 14 -27 4 -4 -12 14 -11 14 -13 -2 -27
-16 -13 -17 -12 -11 4 5 13 3 16 -6 10 -6 -4 -46 -7 -89 -8 -60 0 -74 3 -66
13 7 8 7 12 0 12 -6 0 -14 -4 -17 -10 -3 -5 -17 -9 -31 -8 -25 2 -41 29 -28
49 5 8 3 9 -5 4 -7 -4 -11 -18 -8 -31 3 -16 0 -24 -10 -24 -8 0 -12 3 -10 8 3
4 0 16 -4 27 -9 18 -9 18 -5 -2 2 -13 0 -26 -5 -29 -8 -5 -13 9 -10 29 0 4 -4
7 -10 7 -6 0 -9 -6 -6 -14 9 -22 -5 -28 -19 -8 -10 14 -15 15 -26 4 -11 -11
-10 -12 7 -6 11 4 17 4 13 0 -10 -12 -58 -14 -58 -4 0 6 -7 8 -15 4 -8 -3 -19
3 -25 12 -9 14 -10 12 -4 -8 6 -20 4 -23 -7 -14 -8 6 -39 10 -71 10 -31 -1
-54 2 -52 6 7 10 1 10 -29 -1 -14 -6 -28 -7 -31 -3 -4 3 -19 6 -34 7 -17 0
-26 5 -24 13 1 8 -2 11 -8 7 -6 -3 -8 -10 -6 -14 3 -4 -13 -8 -34 -7 -24 1
-40 6 -41 13 -3 27 -4 32 -13 40 -5 5 -6 3 -2 -4 7 -13 0 -16 -36 -16 -10 0
-15 -3 -13 -8 3 -4 1 -10 -5 -14 -5 -3 -10 -2 -10 3 0 6 -7 13 -16 16 -15 6
-15 4 -3 -11 10 -12 10 -15 1 -9 -7 4 -19 3 -27 -4 -9 -8 -15 -8 -20 0 -3 6
-10 8 -14 6 -4 -3 -13 0 -21 6 -12 8 -11 8 5 3 17 -5 18 -4 7 7 -11 11 -15 10
-25 -2 -13 -17 -71 -15 -61 1 3 6 -4 5 -15 -3 -18 -11 -23 -11 -31 2 -6 10
-10 11 -10 3 0 -17 -18 -16 -35 0 -9 9 -10 19 -3 33 9 18 8 18 -5 2 -8 -10
-16 -16 -19 -13 -2 3 -5 -2 -5 -10 0 -8 4 -12 8 -9 4 2 10 0 13 -5 3 -5 -12
-8 -34 -8 -33 2 -39 5 -34 20 3 9 0 17 -6 17 -6 0 -9 -4 -5 -9 3 -5 0 -13 -5
-16 -17 -10 -60 -13 -60 -5 0 5 -18 6 -40 4 -33 -3 -40 0 -41 14 0 14 -2 14
-7 2 -6 -13 -26 -16 -81 -11 -8 1 -11 8 -8 21 3 11 1 18 -4 14 -5 -3 -9 -11
-9 -18 0 -8 -9 -16 -20 -19 -10 -3 -19 -2 -18 2 2 19 -3 24 -12 11 -5 -8 -12
-11 -16 -7 -4 3 -1 13 6 22 7 9 11 18 8 20 -3 3 -10 -6 -18 -19 -9 -19 -20
-24 -44 -22 -17 1 -37 5 -43 9 -8 5 -13 3 -13 -5 0 -9 -3 -9 -10 2 -9 13 -11
13 -20 0 -9 -13 -10 -13 -10 0 0 13 -1 13 -10 0 -7 -11 -10 -11 -10 -2 0 9 -5
10 -19 3 -10 -6 -21 -8 -24 -5 -5 5 -28 11 -49 13 -15 2 -8 19 10 23 10 3 19
12 19 21 0 9 -4 14 -9 11 -5 -4 -7 -8 -4 -12 10 -9 -45 -32 -67 -28 -12 3 -25
5 -29 5 -5 1 -8 9 -9 19 0 13 -2 12 -9 -5 -10 -25 -30 -31 -30 -10 0 8 -11 19
-25 25 -20 9 -23 9 -18 -3 3 -8 9 -13 13 -10 5 3 11 1 15 -5 3 -5 -3 -10 -14
-10 -12 0 -21 6 -21 13 0 8 -4 7 -11 -3 -9 -12 -10 -11 -6 6 5 22 -14 27 -30
9 -4 -4 -2 -5 5 -1 7 4 12 2 12 -6 0 -8 -12 -13 -30 -13 -33 -1 -37 4 -18 23
7 7 9 12 5 12 -4 0 -16 -9 -28 -21 -11 -11 -23 -18 -27 -15 -3 4 3 13 14 21
18 14 17 14 -8 4 -15 -7 -25 -17 -21 -23 3 -6 0 -5 -8 2 -16 14 -33 16 -24 2
3 -5 -1 -10 -10 -10 -9 0 -14 4 -10 9 6 11 -33 6 -44 -5 -3 -3 3 -4 13 -2 10
1 21 -3 24 -11 3 -8 0 -11 -7 -7 -6 4 -12 0 -12 -8 -1 -9 -2 -22 -3 -28 -1 -7
-13 -13 -29 -12 -15 1 -25 -2 -21 -5 5 -6 9 -7 35 -10 5 0 8 -5 5 -10 -3 -5
-14 -8 -24 -6 -9 1 -11 0 -4 -2 6 -3 12 -9 12 -14 0 -6 6 -7 13 -3 9 6 9 5 0
-8 -7 -8 -12 -17 -10 -19 1 -3 -5 2 -13 11 -8 8 -25 16 -38 18 -30 4 -184 -45
-198 -64 -16 -21 -66 -1 -88 36 -15 27 -39 37 -71 30 -5 -1 -28 -3 -50 -5 -22
-2 -40 -4 -40 -5 0 -1 -12 -3 -26 -4 -15 0 -37 -10 -49 -21 -18 -16 -21 -27
-16 -57 8 -46 -19 -94 -49 -91 -27 4 -53 -18 -59 -49 -4 -25 13 -90 27 -104 4
-4 7 -17 7 -29 0 -37 38 -77 70 -73 37 3 79 -45 73 -85 -3 -20 4 -35 24 -55
15 -15 27 -31 25 -35 -1 -5 1 -6 6 -3 5 3 23 -7 40 -22 29 -25 30 -29 17 -46
-8 -11 -15 -14 -15 -7 0 7 -4 10 -9 6 -5 -3 -12 -1 -15 4 -4 5 -1 13 5 17 7 4
9 3 6 -3 -3 -5 0 -10 8 -10 10 0 12 4 5 12 -5 7 -6 15 -2 20 4 4 -6 0 -22 -11
-28 -18 -29 -18 -22 3 6 18 3 22 -14 20 -11 -1 -20 -5 -20 -10 0 -5 8 -6 18
-2 13 5 14 3 5 -6 -6 -6 -17 -8 -25 -3 -7 5 -30 9 -50 9 -34 1 -43 -5 -39 -27
0 -4 -10 -15 -24 -24 -14 -9 -22 -20 -19 -25 3 -5 -2 -12 -10 -15 -9 -3 -14
-10 -11 -14 3 -4 -2 -13 -10 -20 -8 -7 -12 -16 -9 -21 3 -5 -2 -12 -10 -15 -9
-3 -16 -12 -16 -20 0 -8 -4 -14 -10 -14 -6 0 -5 10 2 25 6 13 14 22 18 20 4
-2 7 3 7 11 0 9 -4 11 -10 5 -5 -5 -17 -7 -26 -4 -14 4 -14 3 -1 -6 8 -5 11
-13 7 -17 -3 -4 -15 -1 -24 7 -17 13 -17 13 0 -7 15 -19 16 -23 3 -33 -8 -7
-21 -9 -28 -5 -10 5 -10 4 -1 -6 10 -10 15 -11 27 -1 10 8 16 9 21 1 4 -6 1
-9 -7 -8 -8 2 -12 -5 -10 -17 2 -16 1 -17 -7 -5 -10 13 -11 13 -11 0 0 -8 -13
10 -28 40 -15 30 -30 57 -33 60 -3 3 -12 20 -20 38 -8 17 -17 32 -21 32 -5 0
-8 7 -8 15 0 8 -4 15 -10 15 -5 0 -10 5 -10 11 0 13 -128 201 -167 246 -15 17
-53 60 -83 95 -30 35 -77 83 -106 108 l-50 45 13 39 c7 21 12 44 12 50 -1 6 1
20 6 31 4 11 30 76 58 145 27 69 53 129 58 134 5 6 9 20 9 33 0 13 4 23 8 23
5 0 9 6 9 13 0 10 30 88 78 202 11 25 25 66 30 85 1 3 7 19 14 35 15 37 50
163 56 202 2 15 6 39 9 53 9 41 24 132 31 182 3 26 8 53 10 60 33 94 36 449 5
509 -6 10 -9 19 -6 19 19 0 -88 297 -126 353 -11 15 -17 27 -13 27 5 0 -102
163 -133 202 -190 236 -420 408 -697 521 -63 26 -196 68 -230 72 -26 3 -94 16
-120 23 -44 11 -372 8 -430 -4z m1692 -1266 c-3 -7 -5 -2 -5 12 0 14 2 19 5
13 2 -7 2 -19 0 -25z m2372 -1526 c0 -11 -2 -13 -6 -4 -4 10 -8 10 -19 1 -15
-12 -30 -7 -21 8 10 17 47 12 46 -5z m-1828 -92 c-8 -4 -11 -15 -8 -23 4 -12
-6 -17 -46 -22 -63 -9 -63 -9 -59 15 2 14 -2 20 -14 20 -37 0 -6 8 56 15 36 4
67 9 69 11 2 2 7 2 10 -2 3 -3 -1 -9 -8 -14z m284 -10 c-6 -9 14 -14 42 -11 6
1 15 -4 19 -10 4 -8 3 -9 -4 -5 -7 4 -12 3 -12 -1 0 -5 -19 -14 -42 -20 -36
-10 -48 -9 -78 7 l-35 18 45 12 c25 6 50 13 55 15 16 6 16 5 10 -5z m2488
-175 c-3 -9 -8 -14 -10 -11 -3 3 -2 9 2 15 9 16 15 13 8 -4z m-3014 -2 c-1 -5
-1 -15 0 -22 1 -12 4 -12 13 -3 19 19 26 15 38 -25 6 -21 14 -45 16 -53 8 -22
5 -25 -18 -22 -12 2 -18 0 -14 -7 4 -6 3 -11 -2 -11 -5 0 -18 26 -28 58 -23
74 -26 92 -14 92 6 0 9 -3 9 -7z m3036 -61 c-10 -10 -15 -11 -10 -3 6 11 4 13
-9 8 -11 -4 -15 -3 -11 4 4 6 13 8 21 5 8 -3 14 0 14 6 0 6 3 8 7 4 4 -3 -1
-14 -12 -24z m-1115 -72 c0 -5 -5 -10 -11 -10 -5 0 -7 5 -4 10 3 6 8 10 11 10
2 0 4 -4 4 -10z m80 -26 c0 -8 -5 -12 -10 -9 -6 4 -8 11 -5 16 9 14 15 11 15
-7z m720 -84 c0 -5 -2 -10 -4 -10 -3 0 -8 5 -11 10 -3 6 -1 10 4 10 6 0 11 -4
11 -10z m-2502 -37 c51 -44 62 -52 81 -63 24 -12 29 -32 6 -24 -8 4 -17 -1
-21 -10 -5 -14 -10 -13 -38 6 -17 12 -44 36 -61 52 -16 16 -23 24 -13 17 19
-14 33 1 24 24 -7 19 -4 19 22 -2z m17 -603 c-10 -11 -20 -18 -23 -16 -5 6 21
35 32 36 5 0 1 -9 -9 -20z"/>
<path d="M4735 4181 c-3 -5 -2 -12 3 -15 5 -3 9 1 9 9 0 17 -3 19 -12 6z"/>
<path d="M4593 4145 c0 -8 4 -12 9 -9 5 3 6 10 3 15 -9 13 -12 11 -12 -6z"/>
<path d="M4621 4144 c0 -11 3 -14 6 -6 3 7 2 16 -1 19 -3 4 -6 -2 -5 -13z"/>
<path d="M4916 4148 c3 -5 10 -6 15 -3 13 9 11 12 -6 12 -8 0 -12 -4 -9 -9z"/>
<path d="M4835 4141 c-3 -5 -2 -12 3 -15 5 -3 9 1 9 9 0 17 -3 19 -12 6z"/>
<path d="M5015 4131 c-3 -5 -2 -12 3 -15 5 -3 9 1 9 9 0 17 -3 19 -12 6z"/>
<path d="M5170 4129 c0 -5 5 -7 10 -4 6 3 10 8 10 11 0 2 -4 4 -10 4 -5 0 -10
-5 -10 -11z"/>
<path d="M4891 4114 c0 -11 3 -14 6 -6 3 7 2 16 -1 19 -3 4 -6 -2 -5 -13z"/>
<path d="M4915 4110 c3 -5 8 -10 11 -10 2 0 4 5 4 10 0 6 -5 10 -11 10 -5 0
-7 -4 -4 -10z"/>
<path d="M5076 4105 c-10 -8 -23 -12 -29 -8 -6 3 -7 1 -3 -5 5 -9 13 -9 27 -2
11 6 24 8 29 5 6 -3 7 1 4 9 -3 9 -7 16 -8 16 0 0 -10 -7 -20 -15z"/>
<path d="M5340 4116 c0 -2 8 -10 18 -17 15 -13 16 -12 3 4 -13 16 -21 21 -21
13z"/>
<path d="M4995 4099 c-4 -6 -5 -12 -2 -15 2 -3 7 2 10 11 7 17 1 20 -8 4z"/>
<path d="M5556 4097 c3 -10 9 -15 12 -12 3 3 0 11 -7 18 -10 9 -11 8 -5 -6z"/>
<path d="M5017 4093 c-4 -3 -7 -11 -7 -17 0 -6 5 -5 12 2 6 6 9 14 7 17 -3 3
-9 2 -12 -2z"/>
<path d="M5143 4093 c-7 -3 -13 -9 -13 -15 0 -7 5 -6 14 1 11 9 15 9 19 -1 4
-9 6 -9 6 -1 1 15 -10 22 -26 16z"/>
<path d="M5315 4090 c3 -5 8 -10 11 -10 2 0 4 5 4 10 0 6 -5 10 -11 10 -5 0
-7 -4 -4 -10z"/>
<path d="M5435 4091 c3 -2 0 -9 -5 -16 -7 -8 -5 -12 5 -12 8 0 12 4 9 8 -2 4
4 12 13 18 16 9 16 10 -4 8 -12 0 -20 -3 -18 -6z"/>
<path d="M5490 4096 c0 -2 7 -7 16 -10 8 -3 12 -2 9 4 -6 10 -25 14 -25 6z"/>
<path d="M5696 4085 c7 -18 6 -19 -9 -6 -15 12 -17 12 -11 -3 3 -9 10 -16 14
-16 16 0 22 22 11 33 -9 9 -10 7 -5 -8z"/>
<path d="M5250 4079 c0 -5 5 -7 10 -4 6 3 10 8 10 11 0 2 -4 4 -10 4 -5 0 -10
-5 -10 -11z"/>
<path d="M5336 4073 c-6 -14 -5 -15 5 -6 7 7 10 15 7 18 -3 3 -9 -2 -12 -12z"/>
<path d="M5401 4074 c0 -11 3 -14 6 -6 3 7 2 16 -1 19 -3 4 -6 -2 -5 -13z"/>
<path d="M5836 4077 c3 -10 9 -15 12 -12 3 3 0 11 -7 18 -10 9 -11 8 -5 -6z"/>
<path d="M5470 4068 c0 -4 4 -8 9 -8 6 0 12 4 15 8 3 5 -1 9 -9 9 -8 0 -15 -4
-15 -9z"/>
<path d="M5636 4067 c3 -10 9 -15 12 -12 3 3 0 11 -7 18 -10 9 -11 8 -5 -6z"/>
<path d="M6035 4070 c-3 -5 -1 -10 4 -10 6 0 11 5 11 10 0 6 -2 10 -4 10 -3 0
-8 -4 -11 -10z"/>
<path d="M6066 4072 c-3 -5 1 -9 9 -9 8 0 15 4 15 9 0 4 -4 8 -9 8 -6 0 -12
-4 -15 -8z"/>
<path d="M6206 4072 c-3 -5 1 -9 9 -9 8 0 12 4 9 9 -3 4 -7 8 -9 8 -2 0 -6 -4
-9 -8z"/>
<path d="M6316 4063 c-6 -14 -5 -15 5 -6 7 7 10 15 7 18 -3 3 -9 -2 -12 -12z"/>
<path d="M4530 4061 c0 -6 4 -13 10 -16 6 -3 7 1 4 9 -7 18 -14 21 -14 7z"/>
<path d="M6003 4053 c-7 -3 -13 -8 -13 -13 0 -10 24 -7 28 4 5 11 -1 14 -15 9z"/>
<path d="M6094 4048 c-3 -5 -10 -6 -15 -3 -5 4 -9 1 -9 -4 0 -14 17 -14 25 0
5 6 11 4 19 -7 10 -13 15 -14 21 -4 6 9 4 11 -5 5 -9 -6 -12 -4 -8 7 6 16 -19
21 -28 6z"/>
<path d="M6146 4047 c3 -10 9 -15 12 -12 3 3 0 11 -7 18 -10 9 -11 8 -5 -6z"/>
<path d="M6174 4049 c-4 -7 -3 -9 4 -5 5 3 13 0 15 -6 4 -9 6 -10 6 -1 1 17
-16 25 -25 12z"/>
<path d="M6285 4049 c-4 -6 -5 -12 -2 -15 2 -3 7 2 10 11 7 17 1 20 -8 4z"/>
<path d="M6388 4048 c5 -5 16 -8 23 -6 8 3 3 7 -10 11 -17 4 -21 3 -13 -5z"/>
<path d="M6610 4039 c-7 -11 -10 -23 -7 -25 2 -2 9 7 15 21 14 30 7 33 -8 4z"/>
<path d="M5830 4039 c0 -5 5 -7 10 -4 6 3 10 8 10 11 0 2 -4 4 -10 4 -5 0 -10
-5 -10 -11z"/>
<path d="M6329 4033 c-13 -16 -12 -17 4 -4 9 7 17 15 17 17 0 8 -8 3 -21 -13z"/>
<path d="M6356 4035 c-3 -8 -1 -15 4 -15 6 0 10 7 10 15 0 8 -2 15 -4 15 -2 0
-6 -7 -10 -15z"/>
<path d="M6529 4023 c12 -8 25 -12 28 -9 4 3 1 6 -6 6 -7 0 -10 4 -7 8 2 4 -5
9 -16 9 -21 2 -21 2 1 -14z"/>
<path d="M6704 4033 c7 -13 -3 -17 -34 -14 -13 2 -13 0 -1 -8 9 -6 21 -6 32 0
12 6 19 5 22 -4 4 -7 6 -8 6 -1 1 6 -7 18 -16 25 -11 10 -14 10 -9 2z"/>
<path d="M6795 4020 c-3 -5 -1 -10 4 -10 6 0 11 5 11 10 0 6 -2 10 -4 10 -3 0
-8 -4 -11 -10z"/>
<path d="M6824 3990 c0 -10 6 -16 13 -13 7 3 13 9 13 13 0 4 -6 10 -13 13 -7
3 -13 -3 -13 -13z"/>
<path d="M6862 3994 c4 -4 3 -14 -2 -24 -7 -13 -4 -22 10 -35 19 -18 20 -17
18 8 -1 14 -6 23 -10 21 -4 -3 -8 -1 -8 5 0 5 5 11 12 13 7 3 4 7 -7 12 -11 4
-16 4 -13 0z"/>
<path d="M6901 3954 c0 -11 3 -14 6 -6 3 7 2 16 -1 19 -3 4 -6 -2 -5 -13z"/>
<path d="M4496 3851 c-3 -5 1 -14 8 -20 10 -9 16 -9 21 -1 4 6 3 10 -2 9 -20
-3 -27 2 -13 11 9 6 10 10 3 10 -6 0 -14 -4 -17 -9z"/>
<path d="M4496 3807 c3 -10 9 -15 12 -12 3 3 0 11 -7 18 -10 9 -11 8 -5 -6z"/>
<path d="M6955 3750 c3 -5 8 -10 11 -10 2 0 4 5 4 10 0 6 -5 10 -11 10 -5 0
-7 -4 -4 -10z"/>
<path d="M4594 3708 c-4 -7 -4 -10 1 -6 4 4 14 0 21 -10 7 -9 14 -12 14 -6 0
6 -6 17 -14 23 -11 9 -16 9 -22 -1z"/>
<path d="M4726 3701 c-4 -5 -2 -12 3 -15 5 -4 12 -2 15 3 4 5 2 12 -3 15 -5 4
-12 2 -15 -3z"/>
<path d="M4573 3685 c0 -8 4 -12 9 -9 5 3 6 10 3 15 -9 13 -12 11 -12 -6z"/>
<path d="M4759 3683 c-13 -16 -12 -17 4 -4 16 13 21 21 13 21 -2 0 -10 -8 -17
-17z"/>
<path d="M4782 3680 c-7 -11 -9 -20 -4 -20 4 0 13 9 20 20 7 11 9 20 4 20 -4
0 -13 -9 -20 -20z"/>
<path d="M4896 3693 c-4 -5 -17 -8 -29 -8 -11 0 -22 -7 -24 -15 -4 -13 -3 -13
5 -1 9 12 13 12 26 2 11 -9 16 -10 16 -2 0 6 4 11 10 11 5 0 7 -8 4 -17 -5
-14 -4 -15 4 -4 6 8 8 20 5 28 -6 15 -7 16 -17 6z"/>
<path d="M4994 3688 c-4 -7 -4 -10 1 -6 4 4 14 3 21 -3 9 -7 14 -6 20 3 4 7 4
10 -1 6 -4 -4 -14 -3 -21 3 -9 7 -14 6 -20 -3z"/>
<path d="M5063 3672 c10 -13 9 -15 -5 -10 -24 10 -50 -13 -37 -32 9 -13 10
-12 5 3 -5 16 5 22 28 18 5 -1 17 6 27 15 11 9 19 13 19 7 0 -16 -36 -44 -45
-36 -4 5 -5 2 -1 -5 6 -9 13 -8 31 5 32 23 28 47 -7 48 -24 2 -26 0 -15 -13z"/>
<path d="M4640 3676 c0 -2 7 -7 16 -10 8 -3 12 -2 9 4 -6 10 -25 14 -25 6z"/>
<path d="M5132 3657 c9 -18 11 -19 20 -3 5 9 14 14 20 10 6 -4 5 -9 -3 -15
-10 -6 -7 -8 8 -6 12 0 19 5 17 9 -3 4 0 8 5 8 6 0 11 -5 11 -11 0 -6 7 -8 16
-5 12 4 15 2 10 -9 -3 -8 -1 -15 4 -15 14 0 12 27 -2 37 -7 4 -24 9 -38 9 -14
1 -25 3 -25 4 0 1 -12 3 -27 4 -24 3 -26 1 -16 -17z"/>
<path d="M5301 3655 c9 -11 14 -26 12 -32 -6 -18 4 -16 10 1 3 8 -4 22 -16 33
-22 18 -22 18 -6 -2z"/>
<path d="M4796 3652 c-3 -4 4 -9 15 -9 23 -2 25 3 4 10 -8 4 -16 3 -19 -1z"/>
<path d="M4855 3650 c-3 -5 -1 -10 4 -10 6 0 11 5 11 10 0 6 -2 10 -4 10 -3 0
-8 -4 -11 -10z"/>
<path d="M5340 3630 c-6 -12 -9 -24 -7 -27 3 -2 8 5 12 16 7 23 20 27 28 11 3
-6 4 -5 3 2 -4 21 -24 20 -36 -2z"/>
<path d="M5390 3646 c0 -2 7 -7 16 -10 8 -3 12 -2 9 4 -6 10 -25 14 -25 6z"/>
<path d="M5507 3635 c3 -8 9 -12 14 -9 12 7 11 11 -5 17 -10 4 -13 1 -9 -8z"/>
<path d="M5386 3613 c-6 -14 -5 -15 5 -6 7 7 10 15 7 18 -3 3 -9 -2 -12 -12z"/>
<path d="M5421 3620 c-9 -5 -4 -7 13 -7 29 0 32 2 13 10 -8 3 -20 2 -26 -3z"/>
<path d="M5617 3623 c-12 -12 -7 -25 7 -20 7 3 20 0 27 -6 7 -7 5 -2 -5 11
-22 25 -20 24 -29 15z"/>
<path d="M6908 3623 c6 -2 10 -9 7 -13 -3 -5 0 -12 6 -16 8 -4 9 -3 5 4 -4 7
-1 12 6 12 9 0 9 3 -2 10 -8 5 -19 9 -25 9 -5 0 -4 -3 3 -6z"/>
<path d="M5468 3598 c-8 -20 17 -18 35 2 10 12 9 12 -5 2 -13 -10 -17 -10 -20
0 -3 8 -6 7 -10 -4z"/>
<path d="M5557 3596 c-4 -9 -1 -15 6 -13 7 1 11 -4 9 -11 -1 -8 2 -11 8 -7 8
5 7 12 -2 23 -7 10 -13 18 -14 20 -1 2 -4 -4 -7 -12z"/>
<path d="M5825 3600 c-4 -7 30 -40 41 -40 4 0 1 7 -6 15 -6 8 -9 18 -6 23 3 5
-2 9 -10 9 -8 0 -17 -3 -19 -7z"/>
<path d="M5416 3588 c3 -4 11 -5 19 -1 21 7 19 12 -4 10 -11 0 -18 -5 -15 -9z"/>
<path d="M5615 3581 c-3 -5 0 -13 6 -17 8 -5 9 -3 4 6 -6 10 -4 12 9 7 10 -4
15 -3 11 3 -8 13 -22 13 -30 1z"/>
<path d="M5803 3579 c9 -6 14 -15 11 -21 -4 -7 -2 -8 5 -4 14 9 -3 36 -23 36
-6 0 -3 -5 7 -11z"/>
<path d="M5735 3570 c-3 -5 -1 -10 4 -10 6 0 11 5 11 10 0 6 -2 10 -4 10 -3 0
-8 -4 -11 -10z"/>
<path d="M6033 3567 c0 -8 6 -14 14 -14 9 0 10 4 2 14 -6 7 -12 13 -14 13 -1
0 -2 -6 -2 -13z"/>
<path d="M6073 3562 c0 -12 5 -22 9 -22 11 0 10 12 -2 30 -7 12 -9 10 -7 -8z"/>
<path d="M6177 3569 c-9 -6 -21 -8 -26 -4 -5 3 -13 0 -16 -6 -11 -17 2 -22 26
-9 19 11 24 9 39 -10 13 -17 19 -20 25 -10 6 9 4 11 -5 5 -10 -6 -12 -4 -7 8
8 22 -14 38 -36 26z"/>
<path d="M6915 3571 c-3 -5 -2 -12 3 -15 5 -3 9 1 9 9 0 17 -3 19 -12 6z"/>
<path d="M5940 3563 c0 -6 8 -17 18 -24 16 -13 16 -13 2 6 -8 11 -16 22 -17
24 -2 2 -3 0 -3 -6z"/>
<path d="M6230 3560 c0 -5 5 -10 10 -10 6 0 10 5 10 10 0 6 -4 10 -10 10 -5 0
-10 -4 -10 -10z"/>
<path d="M5896 3543 c-6 -14 -5 -15 5 -6 7 7 10 15 7 18 -3 3 -9 -2 -12 -12z"/>
<path d="M6800 3540 c-8 -5 -11 -10 -5 -10 5 0 4 -5 -2 -11 -12 -12 -7 -39 7
-39 5 0 12 9 15 20 9 29 25 15 19 -17 -3 -15 -3 -25 1 -22 25 26 -6 97 -35 79z
m14 -25 c-4 -8 -11 -15 -16 -15 -6 0 -5 6 2 15 7 8 14 15 16 15 2 0 1 -7 -2
-15z"/>
<path d="M6100 3530 c-9 -6 -10 -10 -3 -10 6 0 15 5 18 10 8 12 4 12 -15 0z"/>
<path d="M6510 3531 c0 -5 5 -13 10 -16 6 -3 10 -2 10 4 0 5 -4 13 -10 16 -5
3 -10 2 -10 -4z"/>
<path d="M6633 3525 c0 -8 5 -15 11 -15 5 0 2 -6 -8 -13 -16 -12 -16 -13 2
-13 15 0 19 6 16 20 -5 25 -21 42 -21 21z"/>
<path d="M6176 3508 c3 -5 10 -6 15 -3 13 9 11 12 -6 12 -8 0 -12 -4 -9 -9z"/>
<path d="M6216 3483 c-6 -14 -5 -15 5 -6 7 7 10 15 7 18 -3 3 -9 -2 -12 -12z"/>
<path d="M6741 3474 c0 -11 3 -14 6 -6 3 7 2 16 -1 19 -3 4 -6 -2 -5 -13z"/>
<path d="M6775 3461 c-3 -5 -2 -12 3 -15 5 -3 9 1 9 9 0 17 -3 19 -12 6z"/>
<path d="M4014 3375 c-4 -8 -10 -12 -15 -9 -5 3 -9 0 -9 -5 0 -18 19 -12 30 9
6 11 8 20 5 20 -3 0 -8 -7 -11 -15z"/>
<path d="M3935 3370 c3 -5 8 -10 11 -10 2 0 4 5 4 10 0 6 -5 10 -11 10 -5 0
-7 -4 -4 -10z"/>
<path d="M3915 3361 c6 -10 4 -13 -7 -9 -8 4 -15 1 -15 -6 0 -6 8 -12 17 -12
18 0 21 19 5 33 -4 5 -5 2 0 -6z"/>
<path d="M3871 3298 c9 -18 11 -18 34 -1 13 10 19 20 13 22 -5 1 -16 -5 -24
-15 -12 -14 -14 -15 -11 -3 3 9 -1 16 -8 16 -10 0 -11 -5 -4 -19z"/>
<path d="M4176 3292 c-3 -5 3 -16 14 -25 17 -14 19 -14 17 3 -1 11 -6 16 -16
12 -9 -3 -12 -1 -7 6 4 7 5 12 2 12 -3 0 -7 -4 -10 -8z"/>
<path d="M3853 3279 c14 -8 16 -14 6 -25 -9 -11 -15 -12 -28 -2 -11 8 -10 5 3
-9 18 -21 43 -23 31 -2 -4 5 1 12 10 15 14 6 14 8 -2 20 -10 7 -22 13 -28 13
-5 0 -2 -4 8 -10z"/>
<path d="M3810 3230 c0 -5 5 -10 11 -10 5 0 7 5 4 10 -3 6 -8 10 -11 10 -2 0
-4 -4 -4 -10z"/>
<path d="M4260 3185 c7 -8 17 -15 22 -15 5 0 3 7 -6 15 -8 8 -18 15 -22 15 -3
0 -1 -7 6 -15z"/>
<path d="M3770 3170 c0 -5 5 -10 11 -10 5 0 7 5 4 10 -3 6 -8 10 -11 10 -2 0
-4 -4 -4 -10z"/>
<path d="M4296 3143 c-6 -14 -5 -15 5 -6 7 7 10 15 7 18 -3 3 -9 -2 -12 -12z"/>
<path d="M4272 3130 c3 -8 2 -22 -3 -31 -5 -10 -3 -16 6 -16 7 0 11 7 7 15 -4
11 -2 13 9 7 12 -7 12 -6 -1 11 -22 29 -23 30 -18 14z"/>
<path d="M4236 3072 c-3 -4 4 -9 15 -9 23 -2 25 3 4 10 -8 4 -16 3 -19 -1z"/>
<path d="M4210 3010 c0 -5 5 -10 11 -10 5 0 7 5 4 10 -3 6 -8 10 -11 10 -2 0
-4 -4 -4 -10z"/>
<path d="M4157 2934 c-11 -15 -13 -25 -6 -29 6 -4 13 -4 16 -1 4 3 1 6 -6 6
-7 0 -9 5 -6 10 4 6 12 7 18 4 7 -4 9 -4 5 1 -4 4 0 13 8 20 13 9 14 12 2 12
-7 0 -21 -11 -31 -23z"/>
<path d="M4175 2870 c3 -5 8 -10 11 -10 2 0 4 5 4 10 0 6 -5 10 -11 10 -5 0
-7 -4 -4 -10z"/>
<path d="M4131 2834 c0 -11 3 -14 6 -6 3 7 2 16 -1 19 -3 4 -6 -2 -5 -13z"/>
<path d="M4067 2823 c-13 -12 -7 -23 11 -22 10 0 12 3 4 6 -6 2 -10 9 -6 14 6
10 0 12 -9 2z"/>
<path d="M3966 2652 c-3 -5 1 -17 8 -27 12 -17 13 -17 11 3 -2 26 -11 37 -19
24z"/>
</g>
</svg>
